# xmcd
#
# Track frame offsets:
#	187
#	14447
#	27565
#	41100
#	54970
#	69490
#	83772
#	95755
#	107635
#	121270
#	135190
#	147825
#	162542
#	176510
#	191805
#	206682
#	220720
#	235090
#
# Disc length: 4050 seconds
#
# Revision: 4
# Processed by: cddbd v1.5PL3 Copyright (c) Steve Scherf et al.
# Submitted via: CDex 1.50Beta5
#
DISCID=fc0fd012
DTITLE=Various Artist - Monochrome 2 IMMORTAL JAZZ COLLECTION 3000マイルの演奏旅行 Big Band Jazz/Swing Jazz
DYEAR=1994
DGENRE=Jazz
TTITLE0=Woody Herman And His Orchestra/Blues On Parade
TTITLE1=Duke Ellington and His Orchestra/Mood Indigo
TTITLE2=Count Basie and His Orchestra/One O'clock Jump
TTITLE3=The Chocolate Dandies/I Never Knew
TTITLE4=Fletcher Henderson And His Orchestra/Sugar Foot Stomp
TTITLE5=Jimmy Lunceford and His Orchestra/Rose Room
TTITLE6=Chick Webb and HIS Orchestra/A-Tisket, A-Tisket
TTITLE7=Art Tatum Trio/Tea For Two
TTITLE8=Duke Ellington and His Orchestra/Rockin' In Rhythm
TTITLE9=Count Basie and His Orchestra/Jumpin' At The Woodside
TTITLE10=Fletcher Henderson And His Orchestra/Clarinet Marmalade
TTITLE11=Jimmy Lunceford and His Orchestra/My Blue Heaven
TTITLE12=The Delta Four/Farewell Blues
TTITLE13=Lucky Millinder and His Orchestra/Apollo Jump
TTITLE14=Art Tatum and His Band/Stompin' At The Savoy
TTITLE15=Charlie Barnet And His Orchestra/The Great Lie
TTITLE16=Roy Eldridge and His Orchestra/I Can't Get Started
TTITLE17=Lionel Hanpton All Stars/Star Dust
EXTD=
EXTT0=
EXTT1=
EXTT2=
EXTT3=
EXTT4=
EXTT5=
EXTT6=
EXTT7=
EXTT8=
EXTT9=
EXTT10=
EXTT11=
EXTT12=
EXTT13=
EXTT14=
EXTT15=
EXTT16=
EXTT17=
PLAYORDER=
